# xmcd
# 
# Track frame offsets:
#     150
#     14463
#     27326
#     40123
#     53199
#     67212
#     77536
#     88384
#     101046
#     108543
#     118420
#     131736
#     143863
#     157578
#     168512
#     186889
#     206774
#     218202
#     230779
# 
# Disc length: 3249
# 
# Revision: 2
# Processed by: cddbd v1.5.2PL0 Copyright (c) Steve Scherf et al.
# Submitted via: fre:ac v1.0.31
# 
DISCID=1c0caf13
DTITLE=John Mayall - A Hard Road [Expanded Edition], Disc 1
DYEAR=2003
DGENRE=Blues
TTITLE0=A Hard Road
TTITLE1=It's Over
TTITLE2=You Don't Love Me
TTITLE3=The Stumble
TTITLE4=Another Kinda Love
TTITLE5=Hit The Highway
TTITLE6=Leaping Christine
TTITLE7=Dust My Blues
TTITLE8=There's Always Work
TTITLE9=The Same Way
TTITLE10=The Super-Natural
TTITLE11=Top Of The Hill
TTITLE12=Someday After A While (You'll Be Sorry)
TTITLE13=Living Alone
TTITLE14=Evil Woman Blues
TTITLE15=All Of My Life
TTITLE16=Ridin' On The L and N
TTITLE17=Little By Little
TTITLE18=Eagle Eye
EXTD=YEAR: 2003
EXTT0=
EXTT1=
EXTT2=
EXTT3=
EXTT4=
EXTT5=
EXTT6=
EXTT7=
EXTT8=
EXTT9=
EXTT10=
EXTT11=
EXTT12=
EXTT13=
EXTT14=
EXTT15=
EXTT16=
EXTT17=
EXTT18=
PLAYORDER=
